<?xml version="1.0" encoding="UTF-8"?>
<!DOCTYPE svg PUBLIC "-//W3C//DTD SVG 1.1//EN" "http://www.w3.org/Graphics/SVG/1.1/DTD/svg11.dtd">
<!-- Creator: CorelDRAW 2020 (64-Bit) -->
<svg xmlns="http://www.w3.org/2000/svg" xml:space="preserve" width="35mm" height="25mm" version="1.1" style="shape-rendering:geometricPrecision; text-rendering:geometricPrecision; image-rendering:optimizeQuality; fill-rule:evenodd; clip-rule:evenodd"
viewBox="0 0 3500 2500"
 xmlns:xlink="http://www.w3.org/1999/xlink"
 xmlns:xodm="http://www.corel.com/coreldraw/odm/2003">
 <defs>
  <style type="text/css">
   <![CDATA[
    .fil0 {fill:#D9DADA}
    .fil1 {fill:#B0CB1F}
   ]]>
  </style>
 </defs>
 <g id="Слой_x0020_1">
  <metadata id="CorelCorpID_0Corel-Layer"/>
  <circle class="fil0" cx="1797.58" cy="1232.15" r="805.06"/>
  <path class="fil1" d="M1769.53 1369.78c0.48,-0.18 0.87,-0.94 64.3,-94.4 63.43,-93.46 189.9,-279.6 254.24,-374.31 64.35,-94.72 66.58,-98 68.3,-100.24 1.72,-2.25 2.93,-3.46 3.57,-4.1 0.64,-0.64 0.72,-0.72 0.82,-0.68 0.11,0.03 0.25,0.17 0.62,0.54 0.37,0.37 0.96,0.96 49.7,48.78 48.74,47.82 145.63,142.85 194.3,190.6 48.67,47.74 49.13,48.2 49.95,49.03 0.83,0.82 2.02,2.01 2.8,2.8 0.78,0.79 1.16,1.16 1.18,1.51 0.03,0.35 -0.28,0.66 -120.45,120.83 -120.16,120.16 -360.16,360.16 -481.71,481.71 -121.55,121.55 -124.63,124.63 -126.3,126.02 -1.68,1.39 -1.95,1.09 -78.01,-72.05 -76.06,-73.13 -227.92,-219.08 -304.6,-292.79 -76.69,-73.7 -78.19,-75.14 -78.94,-75.87 -0.76,-0.72 -0.76,-0.72 42.42,-43.9 43.18,-43.18 129.53,-129.53 173.1,-173.09 43.56,-43.57 44.33,-44.34 45.13,-44.31 0.79,0.02 1.61,0.84 41.28,43.2 39.67,42.35 118.2,126.23 157.74,168.37 39.53,42.15 40.09,42.54 40.56,42.35z"/>
 </g>
</svg>
