<?xml version="1.0" encoding="UTF-8"?>
<!DOCTYPE svg PUBLIC "-//W3C//DTD SVG 1.1//EN" "http://www.w3.org/Graphics/SVG/1.1/DTD/svg11.dtd">
<!-- Creator: CorelDRAW -->
<svg xmlns="http://www.w3.org/2000/svg" xml:space="preserve" width="2500px" height="2500px" version="1.1" style="shape-rendering:geometricPrecision; text-rendering:geometricPrecision; image-rendering:optimizeQuality; fill-rule:evenodd; clip-rule:evenodd"
viewBox="0 0 2500 2500"
 xmlns:xlink="http://www.w3.org/1999/xlink"
 xmlns:xodm="http://www.corel.com/coreldraw/odm/2003">
 <defs>
  <style type="text/css">
   <![CDATA[
    .fil0 {fill:#008DD2;fill-rule:nonzero}
   ]]>
  </style>
 </defs>
 <g id="Слой_x0020_1">
  <metadata id="CorelCorpID_0Corel-Layer"/>
  <g id="_1736899579104">
   <g>
    <path class="fil0" d="M2133.87 366.14c-488.15,-488.15 -1279.59,-488.15 -1767.74,0 -488.15,488.13 -488.15,1279.59 0,1767.72 488.15,488.15 1279.59,488.15 1767.74,0 488.16,-488.15 488.16,-1279.59 0,-1767.72zm-959.03 1845.91c-107.97,0 -186.32,-81.73 -186.32,-194.41 0,-114.2 79.5,-197.05 189.01,-197.05 109.73,0 186.32,81.01 186.32,197.05 0,114.46 -77.71,194.41 -189.01,194.41zm281.74 -1016.54c-110.45,130.54 -154.26,242.64 -146.46,374.93l2.58 66.41c0.3,1.65 0.45,3.32 0.45,5 0,15.43 -12.5,27.97 -27.94,27.97 -0.11,-0.03 -0.21,-0.03 -0.32,0l-209.37 0c-14.61,0 -26.75,-11.26 -27.86,-25.82l-5.38 -69.8c-17.99,-161.87 40.13,-325.17 172.83,-484.43 114.94,-135.38 181.4,-235.93 181.4,-349.84 0,-128.52 -80.8,-200.56 -227.5,-202.9 -90.56,0 -192.73,31.16 -253.73,77.52 -7.03,5.35 -16.16,7.03 -24.62,4.61 -8.46,-2.42 -15.3,-8.7 -18.44,-16.93l-64.41 -169.1c-4.5,-11.77 -0.53,-25.1 9.69,-32.58 94.16,-68.47 251.26,-112.71 400.3,-112.71 328.94,0 476.23,212.25 476.23,422.55 0,188.21 -102.92,325.38 -237.45,485.12z"/>
   </g>
  </g>
 </g>
</svg>
